{
	"accessors":[{
		"bufferView":0,
		"type":"SCALAR",
		"componentType":5123,
		"count":2628,
		"byteOffset":0,
		"min":[0],
		"max":[927]
	},
	{
		"bufferView":1,
		"type":"VEC3",
		"componentType":5126,
		"count":928,
		"byteOffset":0,
		"min":[109.6882553100586,
		124.02872467041016,
		-12.0],
		"max":[210.3517608642578,
		152.78977966308595,
		0.0]
	},
	{
		"bufferView":1,
		"type":"VEC3",
		"componentType":5126,
		"count":928,
		"byteOffset":12,
		"min":[-1.0,
		-1.0,
		-1.0],
		"max":[1.0,
		1.0,
		1.0]
	},
	{
		"bufferView":1,
		"type":"VEC2",
		"componentType":5126,
		"count":928,
		"byteOffset":24,
		"min":[0.0,
		0.0],
		"max":[1.0,
		1.0]
	},
	{
		"bufferView":2,
		"type":"SCALAR",
		"componentType":5123,
		"count":852,
		"byteOffset":0,
		"min":[0],
		"max":[303]
	},
	{
		"bufferView":3,
		"type":"VEC3",
		"componentType":5126,
		"count":304,
		"byteOffset":0,
		"min":[181.59075927734376,
		181.5507049560547,
		-11.858888626098633],
		"max":[210.35174560546876,
		224.69224548339845,
		0.1411111056804657]
	},
	{
		"bufferView":3,
		"type":"VEC3",
		"componentType":5126,
		"count":304,
		"byteOffset":12,
		"min":[-1.0,
		-1.0,
		-1.0],
		"max":[1.0,
		1.0,
		1.0]
	},
	{
		"bufferView":3,
		"type":"VEC2",
		"componentType":5126,
		"count":304,
		"byteOffset":24,
		"min":[0.0,
		0.0],
		"max":[1.0,
		1.0]
	},
	{
		"bufferView":4,
		"type":"SCALAR",
		"componentType":5123,
		"count":852,
		"byteOffset":0,
		"min":[0],
		"max":[303]
	},
	{
		"bufferView":5,
		"type":"VEC3",
		"componentType":5126,
		"count":304,
		"byteOffset":0,
		"min":[109.6882553100586,
		181.55140686035157,
		-11.894166946411133],
		"max":[138.44923400878907,
		224.69296264648438,
		0.10583332926034928]
	},
	{
		"bufferView":5,
		"type":"VEC3",
		"componentType":5126,
		"count":304,
		"byteOffset":12,
		"min":[-1.0,
		-1.0,
		-1.0],
		"max":[1.0,
		1.0,
		1.0]
	},
	{
		"bufferView":5,
		"type":"VEC2",
		"componentType":5126,
		"count":304,
		"byteOffset":24,
		"min":[0.0,
		0.0],
		"max":[1.0,
		1.0]
	},
	{
		"bufferView":6,
		"type":"SCALAR",
		"componentType":5123,
		"count":2628,
		"byteOffset":0,
		"min":[0],
		"max":[927]
	},
	{
		"bufferView":7,
		"type":"VEC3",
		"componentType":5126,
		"count":928,
		"byteOffset":0,
		"min":[167.21023559570313,
		167.1702423095703,
		-59.929443359375],
		"max":[224.73226928710938,
		239.07278442382813,
		0.07055555284023285]
	},
	{
		"bufferView":7,
		"type":"VEC3",
		"componentType":5126,
		"count":928,
		"byteOffset":12,
		"min":[-1.0,
		-1.0,
		-1.0],
		"max":[1.0,
		1.0,
		1.0]
	},
	{
		"bufferView":7,
		"type":"VEC2",
		"componentType":5126,
		"count":928,
		"byteOffset":24,
		"min":[0.0,
		0.0],
		"max":[1.0,
		1.0]
	},
	{
		"bufferView":8,
		"type":"SCALAR",
		"componentType":5123,
		"count":2628,
		"byteOffset":0,
		"min":[0],
		"max":[927]
	},
	{
		"bufferView":9,
		"type":"VEC3",
		"componentType":5126,
		"count":928,
		"byteOffset":0,
		"min":[95.3077163696289,
		167.17019653320313,
		-59.9647216796875],
		"max":[152.8297576904297,
		239.07272338867188,
		0.035277776420116428]
	},
	{
		"bufferView":9,
		"type":"VEC3",
		"componentType":5126,
		"count":928,
		"byteOffset":12,
		"min":[-1.0,
		-1.0,
		-1.0],
		"max":[1.0,
		1.0,
		1.0]
	},
	{
		"bufferView":9,
		"type":"VEC2",
		"componentType":5126,
		"count":928,
		"byteOffset":24,
		"min":[0.0,
		0.0],
		"max":[1.0,
		1.0]
	},
	{
		"bufferView":10,
		"type":"SCALAR",
		"componentType":5123,
		"count":6180,
		"byteOffset":0,
		"min":[0],
		"max":[2175]
	},
	{
		"bufferView":11,
		"type":"VEC3",
		"componentType":5126,
		"count":2176,
		"byteOffset":0,
		"min":[80.9272232055664,
		80.88720703125,
		-59.823612213134769],
		"max":[239.11277770996095,
		195.93113708496095,
		0.17638888955116273]
	},
	{
		"bufferView":11,
		"type":"VEC3",
		"componentType":5126,
		"count":2176,
		"byteOffset":12,
		"min":[-1.0,
		-1.0,
		-1.0],
		"max":[1.0,
		1.0,
		1.0]
	},
	{
		"bufferView":11,
		"type":"VEC2",
		"componentType":5126,
		"count":2176,
		"byteOffset":24,
		"min":[0.0,
		0.0],
		"max":[1.0,
		1.0]
	}],
	"asset":{
		"version":"2.0",
		"generator":"Created using the official Cinema 4D glTF Exporter 1.000x284978"
	},
	"scenes":[{
		"nodes":[0,
		1]
	}],
	"nodes":[{
		"name":"Camera",
		"translation":[0.9572752714157105,
		78.3163070678711,
		179.90106201171876],
		"rotation":[-0.06286241114139557,
		-0.02194586582481861,
		-0.0013826396316289902,
		0.997779905796051],
		"scale":[1.0,
		1.0,
		1.0],
		"camera":0
	},
	{
		"name":"Null",
		"translation":[-74.33997344970703,
		1.6826889514923096,
		25.477083206176759],
		"rotation":[-0.16486486792564393,
		-0.13958358764648438,
		-0.05218813195824623,
		0.9749935269355774],
		"scale":[0.6000000238418579,
		0.6000000238418579,
		0.6000000238418579],
		"children":[2,
		6,
		7,
		8]
	},
	{
		"name":"Null",
		"translation":[-40.005001068115237,
		-45.665409088134769,
		9.0],
		"rotation":[2.7755575615628916e-17,
		0.0,
		0.0,
		-1.0],
		"scale":[1.0,
		1.0,
		1.0],
		"children":[3,
		4,
		5]
	},
	{
		"name":"Smile",
		"mesh":0
	},
	{
		"name":"Eye R",
		"mesh":1
	},
	{
		"name":"Eye L",
		"mesh":2
	},
	{
		"name":"Beye R",
		"translation":[-40.005001068115237,
		-45.665409088134769,
		2.842170943040401e-14],
		"rotation":[0.0,
		0.0,
		0.0,
		-1.0],
		"scale":[1.0,
		1.0,
		1.0],
		"mesh":3
	},
	{
		"name":"Beye L",
		"translation":[-40.005001068115237,
		-45.665409088134769,
		-1.0],
		"rotation":[0.0,
		0.0,
		0.0,
		-1.0],
		"scale":[1.0,
		1.0,
		1.0],
		"mesh":4
	},
	{
		"name":"logo.ai",
		"translation":[120.01499938964844,
		136.9962158203125,
		-3.0],
		"rotation":[1.6653345369377349e-16,
		-1.3877787807814457e-16,
		-2.311115933264683e-32,
		-1.0],
		"scale":[1.0,
		1.0,
		1.0],
		"children":[9]
	},
	{
		"name":"Body",
		"translation":[-160.02000427246095,
		-182.66163635253907,
		1.4210854715202005e-14],
		"rotation":[0.0,
		0.0,
		0.0,
		-1.0],
		"scale":[1.0,
		1.0,
		1.0],
		"mesh":5
	}],
	"meshes":[{
		"name":"Smile",
		"primitives":[{
			"attributes":{
				"POSITION":1,
				"NORMAL":2,
				"TEXCOORD_0":3
			},
			"indices":0,
			"material":0
		}]
	},
	{
		"name":"Eye R",
		"primitives":[{
			"attributes":{
				"POSITION":5,
				"NORMAL":6,
				"TEXCOORD_0":7
			},
			"indices":4,
			"material":1
		}]
	},
	{
		"name":"Eye L",
		"primitives":[{
			"attributes":{
				"POSITION":9,
				"NORMAL":10,
				"TEXCOORD_0":11
			},
			"indices":8,
			"material":1
		}]
	},
	{
		"name":"Beye R",
		"primitives":[{
			"attributes":{
				"POSITION":13,
				"NORMAL":14,
				"TEXCOORD_0":15
			},
			"indices":12,
			"material":0
		}]
	},
	{
		"name":"Beye L",
		"primitives":[{
			"attributes":{
				"POSITION":17,
				"NORMAL":18,
				"TEXCOORD_0":19
			},
			"indices":16,
			"material":0
		}]
	},
	{
		"name":"Body",
		"primitives":[{
			"attributes":{
				"POSITION":21,
				"NORMAL":22,
				"TEXCOORD_0":23
			},
			"indices":20,
			"material":2
		}]
	}],
	"cameras":[{
		"type":"perspective",
		"perspective":{
			"znear":0.009999999776482582,
			"zfar":10000000000.0,
			"aspectRatio":1.0,
			"yfov":0.9272952079772949
		}
	}],
	"bufferViews":[{
		"buffer":0,
		"byteOffset":0,
		"byteLength":5256,
		"target":34963
	},
	{
		"buffer":0,
		"byteOffset":5256,
		"byteLength":29696,
		"target":34962,
		"byteStride":32
	},
	{
		"buffer":1,
		"byteOffset":0,
		"byteLength":1704,
		"target":34963
	},
	{
		"buffer":1,
		"byteOffset":1704,
		"byteLength":9728,
		"target":34962,
		"byteStride":32
	},
	{
		"buffer":2,
		"byteOffset":0,
		"byteLength":1704,
		"target":34963
	},
	{
		"buffer":2,
		"byteOffset":1704,
		"byteLength":9728,
		"target":34962,
		"byteStride":32
	},
	{
		"buffer":3,
		"byteOffset":0,
		"byteLength":5256,
		"target":34963
	},
	{
		"buffer":3,
		"byteOffset":5256,
		"byteLength":29696,
		"target":34962,
		"byteStride":32
	},
	{
		"buffer":4,
		"byteOffset":0,
		"byteLength":5256,
		"target":34963
	},
	{
		"buffer":4,
		"byteOffset":5256,
		"byteLength":29696,
		"target":34962,
		"byteStride":32
	},
	{
		"buffer":5,
		"byteOffset":0,
		"byteLength":12360,
		"target":34963
	},
	{
		"buffer":5,
		"byteOffset":12360,
		"byteLength":69632,
		"target":34962,
		"byteStride":32
	}],
	"buffers":[{
		"uri":"data:application/octet-stream;base64,",
		"byteLength":34952
	},
	{
		"uri":"data:application/octet-stream;base64,",
		"byteLength":11432
	},
	{
		"uri":"data:application/octet-stream;base64,",
		"byteLength":11432
	},
	{
		"uri":"data:application/octet-stream;base64,",
		"byteLength":34952
	},
	{
		"uri":"data:application/octet-stream;base64,",
		"byteLength":34952
	},
	{
		"uri":"data:application/octet-stream;base64,",
		"byteLength":81992
	}],
	"materials":[{
		"pbrMetallicRoughness":{
			"baseColorFactor":[0.07,
			0.07,
			0.07,
			1.0],
			"metallicFactor":0.0,
			"roughnessFactor":0.5
		},
		"emissiveFactor":[0.0,
		0.0,
		0.0],
		"alphaMode":"OPAQUE",
		"doubleSided":false,
		"name":".4"
	},
	{
		"pbrMetallicRoughness":{
			"baseColorFactor":[0.8,
			0.8,
			0.8,
			1.0],
			"metallicFactor":0.0,
			"roughnessFactor":0.5
		},
		"emissiveFactor":[0.0,
		0.0,
		0.0],
		"alphaMode":"OPAQUE",
		"doubleSided":false,
		"name":".5"
	},
	{
		"pbrMetallicRoughness":{
			"baseColorFactor":[0.6509803921568628,
			0.996078431372549,
			0.12941176470588235,
			1.0],
			"metallicFactor":0.0,
			"roughnessFactor":0.5
		},
		"emissiveFactor":[0.0,
		0.0,
		0.0],
		"alphaMode":"OPAQUE",
		"doubleSided":false,
		"name":".6"
	}]
}